<svg xmlns="http://www.w3.org/2000/svg" viewBox="0 0 390 85" style="&#10;    /* background: #000; */&#10;"><path d="M0 1.84h22.372v79.092H0zm109.593 29.263c0 17.966-13.56 29.15-35.14 29.15H60.668V80.93H38.296V1.84h36.157c21.582 0 35.14 11.185 35.14 29.264zm-22.598 0c0-7.345-4.633-11.64-13.897-11.64h-12.43v23.164h12.43c9.265 0 13.897-4.292 13.897-11.524zM117.5 41.385c0-23.728 18.643-41.13 43.952-41.13s43.956 17.402 43.956 41.13-18.644 41.127-43.956 41.127-43.952-17.4-43.952-41.127zm65.307 0c0-13.67-9.38-22.6-21.355-22.6s-21.355 8.928-21.355 22.6 9.38 22.597 21.355 22.597 21.355-8.926 21.355-22.597zm74.468-8.92c0 10.868-7.878 17.43-20.86 17.43h-13.7v16.12h-5.398V14.96h19.108c12.98 0 20.86 6.566 20.86 17.503zm-5.396 0c0-8.168-5.4-12.836-15.608-12.836h-13.565v25.527h13.565c10.2 0 15.608-4.668 15.608-12.7zm51.925 33.55l-11.67-16.4c-1.356.15-2.72.222-4.084.218h-13.7v16.2h-5.4V14.96h19.1c12.98 0 20.86 6.566 20.86 17.503 0 8.023-4.23 13.64-11.67 16.046l12.47 17.503zm-.3-33.55c0-8.168-5.4-12.836-15.608-12.836H274.33v25.6h13.564c10.2 0 15.608-4.74 15.608-12.763zm13.634 8.023c0-14.877 11.378-25.962 26.84-25.962 15.317 0 26.766 11.013 26.766 25.962s-11.45 25.965-26.766 25.965c-15.46 0-26.84-11.085-26.84-25.964zm48.208 0c0-12.18-9.115-21.15-21.37-21.15-12.325 0-21.513 8.97-21.513 21.15s9.188 21.15 21.513 21.15c12.255 0 21.37-8.97 21.37-21.15z" fill="#fff"/><path d="M213.583 76.296h160.38V80.7h-160.38zm0-76.296h160.38v4.414h-160.38z" fill="#F49600"/></svg>