<svg xmlns="http://www.w3.org/2000/svg" viewBox="0 0 291.02 57.98"><defs><style>.cls-1{font-size:55.29px;fill:#3f3f3f;font-family:OmnesMedium, Omnes;}.cls-2{fill:#00e0b5;}</style></defs><title>lendmeAsset 14</title><g id="Layer_2" data-name="Layer 2"><g id="Layer_1-2" data-name="Layer 1"><text class="cls-1" transform="translate(91.01 45.53)">LendMe</text><path class="cls-2" d="M77.84,31.83,64,12.33c.94,3.32,1.28,6.86-.21,9.92l-8.76,13,5.48,8.15a10.42,10.42,0,0,0,17.3-11.61Z"/><path class="cls-2" d="M38.91,48.1a10,10,0,0,1-8.31-4.38l-6.19-9.23-4.23,6.58c.13-.68,0-27.61,0-27.61,0-.84,0-1.65,0-2.45s.22-3.22,1.77-3.58l.1,0a10.15,10.15,0,0,1,3.14-.32A10.35,10.35,0,0,1,33,11.76l5.88,8.76,5.88-8.75a10.34,10.34,0,0,1,7.82-4.68,9.91,9.91,0,0,1,6.83,2.17,10.12,10.12,0,0,1,1.85,13.51l-14.07,21A9.91,9.91,0,0,1,39,48.1Z"/><rect class="cls-2" y="2.13" width="18.41" height="46.37" rx="6.14"/><circle class="cls-2" cx="75.54" cy="6.98" r="4.46"/></g></g></svg>