<svg xmlns="http://www.w3.org/2000/svg" viewBox="0 0 213.92 216.3"><defs><style>.cls-1{fill:#f6a01c;}.cls-2{fill:#ffed00;}.cls-3{fill:#fff;}</style></defs><title>orbaAsset 2</title><g id="Layer_2" data-name="Layer 2"><g id="Layer_1-2" data-name="Layer 1"><path class="cls-1" d="M71.83,213.21C9.15,197.44-8.33,125.3,4.25,77.74,18.91,22.3,79-11.88,135.63,4s90.89,54.87,72.73,131.11C193.87,195.91,129.53,226.56,71.83,213.21ZM149.35,34.43C88.08-.66,31.49,32.41,17.73,81.52s15.75,95.34,64.91,109.12,98.93-8,112.55-55.75c5.18-18.14,8.57-28.63,1.08-49.44C187.53,61.15,173.69,48.37,149.35,34.43Z"/><path class="cls-2" d="M86.31,212.94C23.52,202.63-7.58,144.89,1.57,90,11.24,32,65.44-7.83,123.5,1.33c48.11,7.6,100.75,39,88.66,121.93C203.91,179.9,145,220.89,86.31,212.94ZM116.52,18.49c-50.43-8-93.15,23.26-101.12,73.7S41.49,185.07,91.45,195.6c49.06,10.35,98.92-24.09,106.89-74.52S170.11,27,116.52,18.49Z"/><path class="cls-3" d="M35.5,104.32c0-8.17,6.36-14.23,15-14.23s15,6,15,14.23-6.4,14.23-15,14.23S35.5,112.5,35.5,104.32Zm23.66,0a8.61,8.61,0,1,0-8.61,8.81A8.39,8.39,0,0,0,59.16,104.32Z"/><path class="cls-3" d="M92.64,118.08l-5.3-7.67H81.48v7.67H75.11V90.56H87c7.35,0,12,3.82,12,10a9,9,0,0,1-5.66,8.69l6.17,8.84Zm-6-22.33H81.48v9.59h5.19c3.89,0,5.86-1.8,5.86-4.79S90.56,95.75,86.67,95.75Z"/><path class="cls-3" d="M134,110.57c0,4.76-3.77,7.51-11,7.51H108.71V90.56h13.45c6.88,0,10.41,2.87,10.41,7.16a6.61,6.61,0,0,1-3.65,6A6.8,6.8,0,0,1,134,110.57ZM115,95.36v6.49h6.33c3.11,0,4.8-1.1,4.8-3.27s-1.69-3.22-4.8-3.22Zm12.5,14.54c0-2.32-1.77-3.42-5.07-3.42H115v6.8h7.43C125.77,113.28,127.54,112.26,127.54,109.9Z"/><path class="cls-3" d="M161.62,112.18H148.84l-2.43,5.9h-6.53l12.27-27.52h6.29l12.3,27.52h-6.69Zm-2-4.83-4.36-10.54-4.36,10.54Z"/><path class="cls-3" d="M106.87,213.21A106.61,106.61,0,1,1,213.47,106.6,106.73,106.73,0,0,1,106.87,213.21Zm0-199.21a92.61,92.61,0,1,0,92.6,92.6A92.7,92.7,0,0,0,106.87,14Z"/></g></g></svg>