<svg xmlns="http://www.w3.org/2000/svg" viewBox="0 0 215.62 218.03"><defs><style>.cls-1{fill:#33332e;}.cls-2{fill:#ffe601;}.cls-3{fill:#f59d16;}</style></defs><title>lendmeAsset 1</title><g id="Layer_2" data-name="Layer 2"><g id="Layer_1-2" data-name="Layer 1"><path class="cls-1" d="M38.8,105.14c0-8.17,6.36-14.22,15.05-14.22s15.05,6,15.05,14.22-6.4,14.23-15.05,14.23S38.8,113.32,38.8,105.14Zm23.66,0A8.61,8.61,0,1,0,53.85,114,8.4,8.4,0,0,0,62.46,105.14Z"/><path class="cls-1" d="M95.94,118.9l-5.3-7.66H84.78v7.66H78.41V91.39H90.32c7.35,0,12,3.81,12,10a8.94,8.94,0,0,1-5.66,8.69l6.17,8.84ZM90,96.58H84.78v9.59H90c3.89,0,5.86-1.81,5.86-4.8S93.86,96.58,90,96.58Z"/><path class="cls-1" d="M137.25,111.39c0,4.76-3.77,7.51-11,7.51H112V91.39h13.44c6.88,0,10.41,2.87,10.41,7.15a6.6,6.6,0,0,1-3.65,6A6.81,6.81,0,0,1,137.25,111.39ZM118.34,96.18v6.49h6.33c3.11,0,4.8-1.1,4.8-3.26s-1.69-3.23-4.8-3.23Zm12.5,14.55c0-2.32-1.77-3.42-5.07-3.42h-7.43v6.8h7.43C129.07,114.11,130.84,113.08,130.84,110.73Z"/><path class="cls-1" d="M164.92,113H152.14l-2.43,5.89h-6.53l12.27-27.51h6.29L174,118.9h-6.69Zm-2-4.84-4.36-10.53-4.36,10.53Z"/><path class="cls-2" d="M72.41,214.91C9.23,199-8.07,126.39,4.29,78.37,19,21.06,79.67-12,136.72,4s91.61,55.3,73.3,132.15C195.42,197.48,130.57,228.37,72.41,214.91ZM150.55,34.72C88.79-.65,31.75,32.68,17.88,82.18s15.87,96.1,65.43,110S183,184.05,196.75,136c5.22-18.29,8.63-28.86,1.09-49.84C189,61.65,175.07,48.77,150.55,34.72Z"/><path class="cls-3" d="M87,214.64C23.7,204.25-7.64,146.05,1.59,90.73,11.33,32.28,66-7.89,124.48,1.35,173,9,226,40.62,213.85,124.25,205.54,181.34,146.13,222.65,87,214.64Zm30.46-196c-50.84-8-93.9,23.44-101.93,74.28s26.3,93.61,76.66,104.23c49.45,10.43,99.71-24.28,107.73-75.11S171.47,27.18,117.45,18.65Z"/><path class="cls-1" d="M107.73,214.91A107.45,107.45,0,1,1,215.17,107.46,107.57,107.57,0,0,1,107.73,214.91Zm0-200.78a93.34,93.34,0,1,0,93.33,93.33A93.44,93.44,0,0,0,107.73,14.13Z"/></g></g></svg>