<svg xmlns="http://www.w3.org/2000/svg" viewBox="0 0 218.03 215.62"><defs><style>.cls-1{fill:#a285e8;}.cls-2{fill:#7b49f3;}.cls-3{fill:#33332e;}</style></defs><g id="Layer_2" data-name="Layer 2"><g id="Layer_1-2" data-name="Layer 1"><path class="cls-1" d="M3.11,72.41C19,9.23,91.64-8.07,139.66,4.29,197,19,230,79.67,214,136.72S158.7,228.33,81.85,210C20.55,195.42-10.35,130.57,3.11,72.41Zm180.2,78.14c35.37-61.76,2-118.8-47.46-132.67s-96.11,15.87-110,65.43S34,183,82.05,196.75c18.28,5.22,28.86,8.63,49.83,1.09C156.37,189,169.26,175.07,183.31,150.55Z"/><path class="cls-2" d="M3.39,87C13.78,23.7,72-7.64,127.3,1.59c58.44,9.74,98.62,64.37,89.37,122.89C209,173,177.41,226,93.78,213.85,36.69,205.54-4.62,146.13,3.39,87Zm196,30.46c8-50.84-23.44-93.9-74.28-101.93S31.48,41.82,20.86,92.18C10.44,141.63,45.14,191.89,96,199.91S190.85,171.47,199.38,117.45Z"/><path class="cls-3" d="M3.11,107.73A107.45,107.45,0,1,1,110.56,215.17,107.57,107.57,0,0,1,3.11,107.73Zm200.79,0a93.34,93.34,0,1,0-93.34,93.33A93.44,93.44,0,0,0,203.9,107.73Z"/></g></g></svg>