<svg width="765" height="201" viewBox="0 0 765 201" fill="none" xmlns="http://www.w3.org/2000/svg">
<path d="M100.496 27.6688C118.481 27.6953 135.815 34.4005 149.136 46.4839C162.457 58.5673 170.815 75.1675 172.59 93.0646C174.364 110.962 169.428 128.88 158.739 143.344C148.05 157.808 132.37 167.786 114.741 171.344C97.1114 174.901 78.789 171.784 63.3275 162.597C47.8661 153.41 36.3679 138.808 31.063 121.624C25.7582 104.439 27.025 85.8964 34.6176 69.5928C42.2102 53.2893 55.5875 40.3867 72.1547 33.3879C81.1211 29.5951 90.7605 27.6499 100.496 27.6688V27.6688ZM100.496 16.9739C54.3664 16.9739 16.969 54.3713 16.969 100.501C16.969 146.631 54.3664 184.028 100.496 184.028C146.626 184.028 184.023 146.634 184.023 100.501C184.023 54.3686 146.629 16.9739 100.496 16.9739V16.9739Z" fill="#25A8DF"/>
<path d="M110.173 123.907C110.195 123.889 110.215 123.869 110.234 123.848L156.947 77.1517C154.067 74.2716 150.648 71.987 146.885 70.4283C143.122 68.8696 139.089 68.0674 135.016 68.0674C130.943 68.0674 126.91 68.8696 123.147 70.4283C119.384 71.987 115.965 74.2716 113.084 77.1517L88.2322 101.977" fill="#25A8DF"/>
<path d="M110.173 123.908C104.456 129.595 96.748 132.832 88.6845 132.932C80.6209 133.032 72.8355 129.987 66.9791 124.443L66.3828 123.847L88.2325 101.978L110.173 123.908Z" fill="#1B75BA"/>
<path d="M88.2308 102.05L87.9153 101.734C82.0993 95.9219 74.2133 92.6567 65.9907 92.6567C57.7682 92.6567 49.8821 95.9219 44.0662 101.734L44.1651 101.697L66.3811 123.91L88.2308 102.05Z" fill="#00A59B"/>
<path d="M254.04 129.96C249.613 129.96 245.32 129.373 241.16 128.2C237.053 126.973 233.747 125.4 231.24 123.48L235.64 113.72C238.04 115.48 240.893 116.893 244.2 117.96C247.507 119.027 250.813 119.56 254.12 119.56C257.8 119.56 260.52 119.027 262.28 117.96C264.04 116.84 264.92 115.373 264.92 113.56C264.92 112.227 264.387 111.133 263.32 110.28C262.307 109.373 260.973 108.653 259.32 108.12C257.72 107.587 255.533 107 252.76 106.36C248.493 105.347 245 104.333 242.28 103.32C239.56 102.307 237.213 100.68 235.24 98.44C233.32 96.2 232.36 93.2133 232.36 89.48C232.36 86.2267 233.24 83.2933 235 80.68C236.76 78.0133 239.4 75.9067 242.92 74.36C246.493 72.8133 250.84 72.04 255.96 72.04C259.533 72.04 263.027 72.4667 266.44 73.32C269.853 74.1733 272.84 75.4 275.4 77L271.4 86.84C266.227 83.9067 261.053 82.44 255.88 82.44C252.253 82.44 249.56 83.0267 247.8 84.2C246.093 85.3733 245.24 86.92 245.24 88.84C245.24 90.76 246.227 92.2 248.2 93.16C250.227 94.0667 253.293 94.9733 257.4 95.88C261.667 96.8933 265.16 97.9067 267.88 98.92C270.6 99.9333 272.92 101.533 274.84 103.72C276.813 105.907 277.8 108.867 277.8 112.6C277.8 115.8 276.893 118.733 275.08 121.4C273.32 124.013 270.653 126.093 267.08 127.64C263.507 129.187 259.16 129.96 254.04 129.96ZM313.536 126.92C312.309 127.827 310.789 128.52 308.976 129C307.216 129.427 305.349 129.64 303.376 129.64C298.256 129.64 294.282 128.333 291.456 125.72C288.682 123.107 287.296 119.267 287.296 114.2V96.52H280.656V86.92H287.296V76.44H299.776V86.92H310.496V96.52H299.776V114.04C299.776 115.853 300.229 117.267 301.136 118.28C302.096 119.24 303.429 119.72 305.136 119.72C307.109 119.72 308.789 119.187 310.176 118.12L313.536 126.92ZM337.901 85.32C344.568 85.32 349.688 86.92 353.261 90.12C356.835 93.2667 358.621 98.04 358.621 104.44V129H346.941V123.64C344.595 127.64 340.221 129.64 333.821 129.64C330.515 129.64 327.635 129.08 325.181 127.96C322.781 126.84 320.941 125.293 319.661 123.32C318.381 121.347 317.741 119.107 317.741 116.6C317.741 112.6 319.235 109.453 322.221 107.16C325.261 104.867 329.928 103.72 336.221 103.72H346.141C346.141 101 345.315 98.92 343.661 97.48C342.008 95.9867 339.528 95.24 336.221 95.24C333.928 95.24 331.661 95.6133 329.421 96.36C327.235 97.0533 325.368 98.0133 323.821 99.24L319.341 90.52C321.688 88.8667 324.488 87.5867 327.741 86.68C331.048 85.7733 334.435 85.32 337.901 85.32ZM336.941 121.24C339.075 121.24 340.968 120.76 342.621 119.8C344.275 118.787 345.448 117.32 346.141 115.4V111H337.581C332.461 111 329.901 112.68 329.901 116.04C329.901 117.64 330.515 118.92 331.741 119.88C333.021 120.787 334.755 121.24 336.941 121.24ZM383.596 86.92H394.636V96.52H383.916V129H371.436V96.52H364.796V86.92H371.436V85C371.436 80.0933 372.876 76.2 375.756 73.32C378.69 70.44 382.796 69 388.076 69C389.943 69 391.703 69.2133 393.356 69.64C395.063 70.0133 396.476 70.5733 397.596 71.32L394.316 80.36C392.876 79.3467 391.196 78.84 389.276 78.84C385.49 78.84 383.596 80.92 383.596 85.08V86.92ZM414.534 86.92H425.574V96.52H414.854V129H402.374V96.52H395.734V86.92H402.374V85C402.374 80.0933 403.814 76.2 406.694 73.32C409.627 70.44 413.734 69 419.014 69C420.88 69 422.64 69.2133 424.294 69.64C426 70.0133 427.414 70.5733 428.534 71.32L425.254 80.36C423.814 79.3467 422.134 78.84 420.214 78.84C416.427 78.84 414.534 80.92 414.534 85.08V86.92ZM493.168 100.12H505.008V122.84C501.968 125.133 498.448 126.893 494.448 128.12C490.448 129.347 486.421 129.96 482.368 129.96C476.554 129.96 471.328 128.733 466.688 126.28C462.048 123.773 458.394 120.333 455.728 115.96C453.114 111.533 451.808 106.547 451.808 101C451.808 95.4533 453.114 90.4933 455.728 86.12C458.394 81.6933 462.074 78.2533 466.768 75.8C471.461 73.2933 476.741 72.04 482.608 72.04C487.514 72.04 491.968 72.8667 495.968 74.52C499.968 76.1733 503.328 78.5733 506.048 81.72L497.728 89.4C493.728 85.1867 488.901 83.08 483.248 83.08C479.674 83.08 476.501 83.8267 473.728 85.32C470.954 86.8133 468.794 88.92 467.248 91.64C465.701 94.36 464.928 97.48 464.928 101C464.928 104.467 465.701 107.56 467.248 110.28C468.794 113 470.928 115.133 473.648 116.68C476.421 118.173 479.568 118.92 483.088 118.92C486.821 118.92 490.181 118.12 493.168 116.52V100.12ZM558.326 107.64C558.326 107.8 558.246 108.92 558.086 111H525.526C526.113 113.667 527.5 115.773 529.686 117.32C531.873 118.867 534.593 119.64 537.846 119.64C540.086 119.64 542.06 119.32 543.766 118.68C545.526 117.987 547.153 116.92 548.646 115.48L555.286 122.68C551.233 127.32 545.313 129.64 537.526 129.64C532.673 129.64 528.38 128.707 524.646 126.84C520.913 124.92 518.033 122.28 516.006 118.92C513.98 115.56 512.966 111.747 512.966 107.48C512.966 103.267 513.953 99.48 515.926 96.12C517.953 92.7067 520.7 90.0667 524.166 88.2C527.686 86.28 531.606 85.32 535.926 85.32C540.14 85.32 543.953 86.2267 547.366 88.04C550.78 89.8533 553.446 92.4667 555.366 95.88C557.34 99.24 558.326 103.16 558.326 107.64ZM536.006 94.76C533.18 94.76 530.806 95.56 528.886 97.16C526.966 98.76 525.793 100.947 525.366 103.72H546.566C546.14 101 544.966 98.84 543.046 97.24C541.126 95.5867 538.78 94.76 536.006 94.76ZM592.795 85.32C598.128 85.32 602.422 86.92 605.675 90.12C608.982 93.32 610.635 98.0667 610.635 104.36V129H598.155V106.28C598.155 102.867 597.408 100.333 595.915 98.68C594.422 96.9733 592.262 96.12 589.435 96.12C586.288 96.12 583.782 97.1067 581.915 99.08C580.048 101 579.115 103.88 579.115 107.72V129H566.635V85.96H578.555V91C580.208 89.1867 582.262 87.8 584.715 86.84C587.168 85.8267 589.862 85.32 592.795 85.32ZM621.948 85.96H634.428V129H621.948V85.96ZM628.188 79.96C625.894 79.96 624.028 79.2933 622.588 77.96C621.148 76.6267 620.428 74.9733 620.428 73C620.428 71.0267 621.148 69.3733 622.588 68.04C624.028 66.7067 625.894 66.04 628.188 66.04C630.481 66.04 632.348 66.68 633.788 67.96C635.228 69.24 635.948 70.84 635.948 72.76C635.948 74.84 635.228 76.5733 633.788 77.96C632.348 79.2933 630.481 79.96 628.188 79.96ZM689.37 85.96V129H677.53V123.88C675.877 125.747 673.903 127.187 671.61 128.2C669.317 129.16 666.837 129.64 664.17 129.64C658.517 129.64 654.037 128.013 650.73 124.76C647.423 121.507 645.77 116.68 645.77 110.28V85.96H658.25V108.44C658.25 115.373 661.157 118.84 666.97 118.84C669.957 118.84 672.357 117.88 674.17 115.96C675.983 113.987 676.89 111.08 676.89 107.24V85.96H689.37ZM715.412 129.64C711.839 129.64 708.345 129.213 704.932 128.36C701.519 127.453 698.799 126.333 696.772 125L700.932 116.04C702.852 117.267 705.172 118.28 707.892 119.08C710.612 119.827 713.279 120.2 715.892 120.2C721.172 120.2 723.812 118.893 723.812 116.28C723.812 115.053 723.092 114.173 721.652 113.64C720.212 113.107 717.999 112.653 715.012 112.28C711.492 111.747 708.585 111.133 706.292 110.44C703.999 109.747 701.999 108.52 700.292 106.76C698.639 105 697.812 102.493 697.812 99.24C697.812 96.52 698.585 94.12 700.132 92.04C701.732 89.9067 704.025 88.2533 707.012 87.08C710.052 85.9067 713.625 85.32 717.732 85.32C720.772 85.32 723.785 85.6667 726.772 86.36C729.812 87 732.319 87.9067 734.292 89.08L730.132 97.96C726.345 95.8267 722.212 94.76 717.732 94.76C715.065 94.76 713.065 95.1333 711.732 95.88C710.399 96.6267 709.732 97.5867 709.732 98.76C709.732 100.093 710.452 101.027 711.892 101.56C713.332 102.093 715.625 102.6 718.772 103.08C722.292 103.667 725.172 104.307 727.412 105C729.652 105.64 731.599 106.84 733.252 108.6C734.905 110.36 735.732 112.813 735.732 115.96C735.732 118.627 734.932 121 733.332 123.08C731.732 125.16 729.385 126.787 726.292 127.96C723.252 129.08 719.625 129.64 715.412 129.64Z" fill="#26A9E0"/>
</svg>
