<svg xmlns="http://www.w3.org/2000/svg" xmlns:xlink="http://www.w3.org/1999/xlink" viewBox="0 0 246.53 57.93"><defs><style>.cls-1{fill:none;}.cls-2{clip-path:url(#clip-path);}.cls-3{fill:#9c3234;}.cls-4{fill:#272927;}</style><clipPath id="clip-path" transform="translate(-7.36 -8.85)"><rect class="cls-1" width="259.41" height="73.89"/></clipPath></defs><title>sygnusAsset 1</title><g id="Layer_2" data-name="Layer 2"><g id="Layer_1-2" data-name="Layer 1"><g class="cls-2"><path class="cls-3" d="M46.63,33.83a11.13,11.13,0,0,1-3.16,8,10.76,10.76,0,0,1-8,3.26H9.74V38.63H30.91a6.21,6.21,0,0,0,3.58-1,3.6,3.6,0,0,0,1.66-3.13q0-4.65-6.54-4.65H18.93A12.39,12.39,0,0,1,10.83,27a9,9,0,0,1-3.47-7.25,10.09,10.09,0,0,1,3.39-7.89,13,13,0,0,1,9-3H44.24v6.23H22.61a4.61,4.61,0,0,0-2.93,1.21,3.6,3.6,0,0,0-1.48,2.86,4,4,0,0,0,1.43,3.12,5,5,0,0,0,3.45,1.27H34.85q5.51,0,8.64,2.82a9.56,9.56,0,0,1,3.14,7.47" transform="translate(-7.36 -8.85)"/><polygon class="cls-3" points="78.91 0 62.93 20.98 62.93 36.37 54.37 36.37 54.37 20.98 38.6 0 49.13 0 58.57 14.42 68.17 0 78.91 0"/><path class="cls-3" d="M125.28,45.12H101.1a13.21,13.21,0,0,1-10.89-5.6,20,20,0,0,1-4-12.53,18.87,18.87,0,0,1,4.46-12.65,14.78,14.78,0,0,1,11.73-5.49h22.51v6.7H104.48A7.53,7.53,0,0,0,98,19.07a13.32,13.32,0,0,0-2.23,7.81,15.49,15.49,0,0,0,2.07,8.18,7.28,7.28,0,0,0,6.44,3.88h12.19V29.76H104v-6h21.27Z" transform="translate(-7.36 -8.85)"/><polygon class="cls-3" points="161.5 36.27 149.99 36.27 132.45 9.44 132.45 36.27 123.79 36.27 123.79 0 135.46 0 152.68 27.18 152.68 0 161.5 0 161.5 36.27"/><path class="cls-3" d="M210.36,32.84q0,7.15-5.71,10.1-4.25,2.18-12.19,2.18-7.72,0-12.4-2.54a10.7,10.7,0,0,1-6-10.1V8.85h9.18V31.33c0,2.83,1,4.89,3.06,6.16a10.21,10.21,0,0,0,5.55,1.4c3.77,0,6.37-.74,7.78-2.22A7.93,7.93,0,0,0,201.49,31V8.85h8.87Z" transform="translate(-7.36 -8.85)"/><path class="cls-3" d="M253.89,33.83a11.1,11.1,0,0,1-3.17,8,10.74,10.74,0,0,1-8,3.26H217V38.63h21.17a6.21,6.21,0,0,0,3.58-1,3.6,3.6,0,0,0,1.66-3.13q0-4.65-6.54-4.65H226.19a12.39,12.39,0,0,1-8.1-2.84,9,9,0,0,1-3.47-7.25A10.09,10.09,0,0,1,218,11.88a13,13,0,0,1,9-3H251.5v6.23H229.87a4.61,4.61,0,0,0-2.93,1.21,3.6,3.6,0,0,0-1.48,2.86,4,4,0,0,0,1.43,3.12,5,5,0,0,0,3.45,1.27h11.77q5.5,0,8.64,2.82a9.56,9.56,0,0,1,3.14,7.47" transform="translate(-7.36 -8.85)"/><path class="cls-4" d="M14.37,58.56a8.34,8.34,0,0,0,1.45,5.23,5.16,5.16,0,0,0,4.36,1.88A9.26,9.26,0,0,0,23.84,65a12.54,12.54,0,0,0,3.31-2.13l.36.29.36.29A14.13,14.13,0,0,1,24,66a10.71,10.71,0,0,1-4.21.79,10.23,10.23,0,0,1-6.87-2.24,7.38,7.38,0,0,1-2.63-5.89,7.69,7.69,0,0,1,2.62-6,9.48,9.48,0,0,1,6.62-2.37,12.16,12.16,0,0,1,3.76.58,12.72,12.72,0,0,0,2.19.58,1.25,1.25,0,0,0,.86-.28,2.8,2.8,0,0,0,.55-.79h.63v5.42h-.58a11.38,11.38,0,0,0-1-1.56,10,10,0,0,0-1.49-1.5,7.09,7.09,0,0,0-4.52-1.66A4.78,4.78,0,0,0,15.71,53a9.19,9.19,0,0,0-1.34,5.33Z" transform="translate(-7.36 -8.85)"/><path class="cls-4" d="M67.76,66.34H59.33v-.58a4.79,4.79,0,0,0,2.2-.35.53.53,0,0,0,.25-.5,2.82,2.82,0,0,0-.16-.84L60.44,61.8H53.31l-1.07,2.27a2.25,2.25,0,0,0-.16.72.69.69,0,0,0,.44.65,5.45,5.45,0,0,0,2,.32v.58H48.88v-.58a2.57,2.57,0,0,0,1.22-.41,3.55,3.55,0,0,0,1-1.23l6.74-13.75h.67l7.06,13.72a3.68,3.68,0,0,0,1.1,1.39,2,2,0,0,0,1.08.28Zm-11-11.85-3,6.39H60Z" transform="translate(-7.36 -8.85)"/><path class="cls-4" d="M94.93,64.19a1.36,1.36,0,0,0,.39,1.07,2.8,2.8,0,0,0,1.55.46l.68,0v.58H88.84v-.58l.67-.07a2.11,2.11,0,0,0,1.33-.48,1.59,1.59,0,0,0,.34-1.11V52.87a1.47,1.47,0,0,0-.37-1.09,2.27,2.27,0,0,0-1.37-.47l-.6,0v-.58h8.78a11.48,11.48,0,0,1,5.5,1.1,3.49,3.49,0,0,1,2,3.21,3.53,3.53,0,0,1-2,3.17,10.28,10.28,0,0,1-5.21,1.16h-3Zm.44-5.67a9.36,9.36,0,0,0,4.49-.75A3,3,0,0,0,101.09,55a3.35,3.35,0,0,0-1-2.68,5.3,5.3,0,0,0-3.41-.84,2.8,2.8,0,0,0-1.34.23.69.69,0,0,0-.42.62v6.19Z" transform="translate(-7.36 -8.85)"/><path class="cls-4" d="M133.13,65.25a2.68,2.68,0,0,0,1.52.47l.7,0v.58h-9.61v-.58l.93-.07a3.64,3.64,0,0,0,1.81-.48,1.33,1.33,0,0,0,.48-1.12V52.87a1.26,1.26,0,0,0-.52-1.09,4.05,4.05,0,0,0-1.91-.47l-.86,0v-.58h9.61v.58l-.74.07a2.57,2.57,0,0,0-1.46.48,1.51,1.51,0,0,0-.37,1.12V64.17a1.36,1.36,0,0,0,.42,1.08" transform="translate(-7.36 -8.85)"/><path class="cls-4" d="M167.18,65.25a3,3,0,0,0,1.64.47l.76,0v.58h-9.47v-.58l.82-.07a3,3,0,0,0,1.63-.48,1.45,1.45,0,0,0,.4-1.12V51.43a7.77,7.77,0,0,0-4,.88,4.06,4.06,0,0,0-1.82,3h-.67l.07-4.65H173.2l0,4.65h-.67a4.13,4.13,0,0,0-1.91-3.06,7.83,7.83,0,0,0-3.92-.85V64.17a1.31,1.31,0,0,0,.44,1.08" transform="translate(-7.36 -8.85)"/><path class="cls-4" d="M212.9,66.34h-8.43v-.58a4.79,4.79,0,0,0,2.2-.35.54.54,0,0,0,.26-.5,2.89,2.89,0,0,0-.17-.84l-1.18-2.27h-7.13l-1.07,2.27a2.25,2.25,0,0,0-.16.72.69.69,0,0,0,.44.65,5.45,5.45,0,0,0,2,.32v.58H194v-.58a2.53,2.53,0,0,0,1.21-.41,3.44,3.44,0,0,0,1-1.23L203,50.37h.67l7.06,13.72a3.68,3.68,0,0,0,1.1,1.39,2.07,2.07,0,0,0,1.08.28Zm-11-11.85-3,6.39h6.23Z" transform="translate(-7.36 -8.85)"/><path class="cls-4" d="M240.21,64.35a1,1,0,0,0,.5,1,4.55,4.55,0,0,0,2,.28,10.47,10.47,0,0,0,4.32-.75,6.94,6.94,0,0,0,2.79-2.44l.81-1.35h.67l-.95,5.26H234.05v-.58l.7-.07a2.22,2.22,0,0,0,1.36-.48,1.54,1.54,0,0,0,.35-1.11V52.87a1.39,1.39,0,0,0-.4-1.09,2.4,2.4,0,0,0-1.36-.47l-.65,0v-.58h9.17v.58l-.88.07a3.31,3.31,0,0,0-1.7.48,1.39,1.39,0,0,0-.43,1.12Z" transform="translate(-7.36 -8.85)"/></g></g></g></svg>