<svg id="Layer_1" data-name="Layer 1" xmlns="http://www.w3.org/2000/svg" xmlns:xlink="http://www.w3.org/1999/xlink" viewBox="0 0 934.8 767.67"><defs><style>.cls-1{fill:url(#linear-gradient);}.cls-2{fill:#252122;}.cls-3{fill:#fff;}.cls-4{fill:#707070;}.cls-5{fill:url(#linear-gradient-2);}.cls-6{fill:url(#linear-gradient-3);}</style><linearGradient id="linear-gradient" x1="467.88" y1="567.17" x2="466.92" y2="-0.78" gradientUnits="userSpaceOnUse"><stop offset="0" stop-color="#fff"/><stop offset="0.52" stop-color="#6172b6"/><stop offset="1" stop-color="#1d4ca0"/></linearGradient><linearGradient id="linear-gradient-2" x1="286.09" y1="150.79" x2="401.81" y2="647.47" gradientUnits="userSpaceOnUse"><stop offset="0" stop-color="#fff"/><stop offset="0.5" stop-color="#6372b6"/><stop offset="0.86" stop-color="#1d4ca0"/></linearGradient><linearGradient id="linear-gradient-3" x1="614.98" y1="110.03" x2="668.05" y2="550" gradientUnits="userSpaceOnUse"><stop offset="0" stop-color="#fff"/><stop offset="0.7" stop-color="#6a78b9"/><stop offset="1" stop-color="#1d4ca0"/></linearGradient></defs><title>transjamaica-highway</title><rect class="cls-1" width="934.8" height="566.39"/><polygon class="cls-2" points="83.43 180.96 68.52 168.18 43.66 168.18 29.46 157.53 42.95 140.48 44.37 122.02 96.21 87.22 176.46 83.67 196.35 87.93 196.35 68.04 218.36 53.84 489.65 83.67 526.58 104.26 555.7 93.61 615.35 109.94 662.23 151.84 708.39 150.42 836.22 193.03 880.96 264.05 909.37 282.52 909.37 293.17 758.1 299.56 726.85 284.65 713.36 266.89 711.94 275.42 679.27 282.52 672.88 288.2 650.86 274.7 672.17 275.42 689.92 269.02 670.75 267.6 649.44 258.37 606.12 323 557.12 292.46 526.58 293.17 510.96 323 513.97 332.94 501.73 340.75 527.29 346.43 537.95 358.51 520.19 362.77 363.24 307.37 318.5 308.79 284.41 303.82 186.41 217.89 151.61 178.12 83.43 180.96"/><polygon class="cls-3" points="83.43 169.38 68.52 156.59 43.66 156.59 29.46 145.94 42.95 128.9 44.37 110.43 96.21 75.63 176.46 72.08 196.35 76.34 196.35 56.46 218.36 42.26 489.65 72.08 526.58 92.68 555.7 82.03 615.35 98.36 662.23 140.26 708.39 138.84 836.22 181.45 880.96 252.47 909.37 270.93 909.37 281.59 758.1 287.98 726.85 273.06 713.36 255.31 711.94 263.83 679.27 270.93 672.88 276.62 650.86 263.12 672.17 263.83 689.92 257.44 670.75 256.02 649.44 246.79 606.12 311.41 557.12 280.88 526.58 281.59 510.96 311.41 513.97 321.36 501.73 329.17 527.29 334.85 537.95 346.92 520.19 351.18 363.24 295.79 318.5 297.21 284.41 292.24 186.41 206.31 151.61 166.54 83.43 169.38"/><path class="cls-4" d="M83.65,597H57.39v58.55H41.09V597H15.23V585H83.65Z" transform="translate(-0.01 0.19)"/><path class="cls-4" d="M167.65,655.31H147.76l-18.27-27.47h-19v27.47H93.81V585h51.51a18.16,18.16,0,0,1,14.48,6.78,23.94,23.94,0,0,1,5.74,16,17.25,17.25,0,0,1-4.93,12.44,22,22,0,0,1-12.48,6.43Zm-22.43-48.24a8.77,8.77,0,0,0-3.68-7.56q-3.66-2.65-9.91-2.66H110.51v19.62h21.63a16.9,16.9,0,0,0,8.45-2.1C143.67,612.64,145.22,610.2,145.22,607.07Z" transform="translate(-0.01 0.19)"/><path class="cls-4" d="M244.62,655.31H227l-5.94-16H192l-6.34,16h-17.4L197.13,585h17.2Zm-29-28.27-9.56-24.75L196.83,627Z" transform="translate(-0.01 0.19)"/><path class="cls-4" d="M324.8,655.31H302.47l-34-52v52h-16.8V585H274.3l33.4,52.72V585h17.1Z" transform="translate(-0.01 0.19)"/><path class="cls-4" d="M414.14,633.43A21.51,21.51,0,0,1,408,649a20.81,20.81,0,0,1-15.59,6.32h-49.8V642.73h41.05a12,12,0,0,0,6.94-1.92,7,7,0,0,0,3.22-6.07q0-9-12.68-9H360.42a24,24,0,0,1-15.7-5.52A17.38,17.38,0,0,1,338,606.16a19.56,19.56,0,0,1,6.59-15.31q6.58-5.86,17.35-5.87h47.59v12.08H367.56a9,9,0,0,0-5.69,2.35A7,7,0,0,0,359,605a7.78,7.78,0,0,0,2.76,6,9.78,9.78,0,0,0,6.69,2.45H391.3q10.67,0,16.75,5.47T414.14,633.43Z" transform="translate(-0.01 0.19)"/><path class="cls-4" d="M480.94,629.59a37.43,37.43,0,0,1-.45,6.48,22,22,0,0,1-2,5.57,20.92,20.92,0,0,1-12.27,11.06q-6.94,2.61-18,2.61H422.89V643.84h22.54a30,30,0,0,0,7.95-.8,12.25,12.25,0,0,0,6.24-4.32,13.64,13.64,0,0,0,2.51-4.47,17.8,17.8,0,0,0,.71-5.28V585h18.1Z" transform="translate(-0.01 0.19)"/><path class="cls-4" d="M564.65,655.31H547l-5.93-16H512l-6.34,16h-17.4L517.16,585h17.21Zm-29-28.27-9.55-24.75L516.86,627Z" transform="translate(-0.01 0.19)"/><path class="cls-4" d="M660.13,655.31h-15.2V601.58L625,655.31H606.9l-20.52-54.93v54.93H571.69V585h23.54l20.63,55.64L635.68,585h24.45Z" transform="translate(-0.01 0.19)"/><path class="cls-4" d="M743.93,655.31h-17.6l-5.94-16H691.31l-6.33,16H667.57L696.44,585h17.21ZM715,627l-9.56-24.75L696.14,627Z" transform="translate(-0.01 0.19)"/><path class="cls-4" d="M769.79,655.31H751V585h18.82Z" transform="translate(-0.01 0.19)"/><path class="cls-4" d="M842.33,655.31H811.24a34.34,34.34,0,0,1-9.36-1.31q-9-2.71-14.18-12.45A43,43,0,0,1,783,621a45.68,45.68,0,0,1,4.22-20.09q4.63-9.65,13.18-13.16A35.62,35.62,0,0,1,814,585h28.18v13.49H812.85q-7.15,0-10.36,7.74-2.52,6-2.52,15.8a28.12,28.12,0,0,0,3.22,14q3.72,6.75,10.46,6.74h28.68Z" transform="translate(-0.01 0.19)"/><path class="cls-4" d="M924.22,655.31H906.61l-5.93-16H871.6l-6.34,16h-17.4L876.73,585h17.21Zm-29-28.27-9.56-24.75L876.43,627Z" transform="translate(-0.01 0.19)"/><path class="cls-4" d="M92.3,767.29H74.89V738.71H42.69v28.58H25.79V697h16.9v29.18h32.2V697H92.3Z" transform="translate(-0.01 0.19)"/><path class="cls-4" d="M183.75,767.29H164.93V697h18.82Z" transform="translate(-0.01 0.19)"/><path class="cls-4" d="M330.23,767.29H283.35q-12.78,0-21.13-10.85-7.85-10.26-7.85-24.32,0-14.36,8.66-24.51A28.58,28.58,0,0,1,285.76,697h43.67v13H289.89q-7.84,0-12.58,6.83A25.92,25.92,0,0,0,273,731.92a30,30,0,0,0,4,15.87q4.64,7.53,12.48,7.52h23.64v-17.8H289V725.84h41.25Z" transform="translate(-0.01 0.19)"/><path class="cls-4" d="M470.58,767.29h-17.4V738.71H421v28.58h-16.9V697H421v29.18h32.2V697h17.4Z" transform="translate(-0.01 0.19)"/><path class="cls-4" d="M655.8,697l-24.45,70.33H609.92l-15.59-49.7-15.09,49.7H558.51L534.27,697h19.21l15.7,52.52L584.67,697h20l16.6,53.12L636.38,697Z" transform="translate(-0.01 0.19)"/><path class="cls-4" d="M787.9,767.29H770.29l-5.93-16H735.28l-6.34,16h-17.4L740.41,697h17.21Zm-29-28.27-9.55-24.75L740.11,739Z" transform="translate(-0.01 0.19)"/><path class="cls-4" d="M921.31,697l-31,40.69v29.84h-16.6V737.65L843.13,697h20.43l18.31,28,18.61-28Z" transform="translate(-0.01 0.19)"/><path class="cls-5" d="M483.51,566.2H274.24S123.33,269.31,350.71,101.39l48.29,17S213.88,259.57,483.51,566.2Z" transform="translate(-0.01 0.19)"/><path class="cls-6" d="M521.74,566.2c-269.63-306.63-84.51-447.78-84.51-447.78L501.62,133S264.18,350.9,930.21,566.2Z" transform="translate(-0.01 0.19)"/></svg>