<svg xmlns="http://www.w3.org/2000/svg" xmlns:xlink="http://www.w3.org/1999/xlink" viewBox="0 0 487.31 402.02"><defs><style>.cls-1{fill:url(#linear-gradient);}.cls-2{fill:#252122;}.cls-3{fill:#fff;}.cls-4,.cls-5{font-size:50px;fill:#707070;font-family:Denmark;}.cls-4{letter-spacing:0.05em;}.cls-5{letter-spacing:0.62em;}.cls-6{fill:url(#linear-gradient-2);}.cls-7{fill:url(#linear-gradient-3);}</style><linearGradient id="linear-gradient" x1="232.52" y1="281.87" x2="232.05" y2="-0.39" gradientUnits="userSpaceOnUse"><stop offset="0" stop-color="#fff"/><stop offset="0.52" stop-color="#6172b6"/><stop offset="1" stop-color="#1d4ca0"/></linearGradient><linearGradient id="linear-gradient-2" x1="142.17" y1="75.03" x2="199.69" y2="321.87" gradientUnits="userSpaceOnUse"><stop offset="0" stop-color="#fff"/><stop offset="0.5" stop-color="#6372b6"/><stop offset="0.86" stop-color="#1d4ca0"/></linearGradient><linearGradient id="linear-gradient-3" x1="305.63" y1="54.77" x2="332" y2="273.43" gradientUnits="userSpaceOnUse"><stop offset="0" stop-color="#fff"/><stop offset="0.7" stop-color="#6a78b9"/><stop offset="1" stop-color="#1d4ca0"/></linearGradient></defs><title>transjamaica-highwayAsset 2</title><g id="Layer_2" data-name="Layer 2"><g id="Layer_1-2" data-name="Layer 1"><rect class="cls-1" width="464.57" height="281.48"/><polygon class="cls-2" points="41.46 89.93 34.05 83.58 21.7 83.58 14.64 78.29 21.34 69.81 22.05 60.64 47.81 43.34 87.7 41.58 97.58 43.7 97.58 33.81 108.52 26.76 243.34 41.58 261.7 51.81 276.17 46.52 305.81 54.64 329.11 75.46 352.05 74.76 415.58 95.93 437.81 131.23 451.93 140.4 451.93 145.7 376.76 148.87 361.23 141.46 354.52 132.64 353.81 136.87 337.58 140.4 334.4 143.23 323.46 136.52 334.05 136.87 342.87 133.7 333.35 132.99 322.76 128.4 301.23 160.52 276.87 145.34 261.7 145.7 253.93 160.52 255.43 165.46 249.34 169.34 262.05 172.17 267.35 178.17 258.52 180.29 180.52 152.76 158.29 153.46 141.34 150.99 92.64 108.29 75.34 88.52 41.46 89.93"/><polygon class="cls-3" points="41.46 84.18 34.05 77.82 21.7 77.82 14.64 72.53 21.34 64.06 22.05 54.88 47.81 37.59 87.7 35.82 97.58 37.94 97.58 28.06 108.52 21 243.34 35.82 261.7 46.06 276.17 40.77 305.81 48.88 329.11 69.71 352.05 69 415.58 90.18 437.81 125.47 451.93 134.65 451.93 139.94 376.76 143.12 361.23 135.71 354.52 126.88 353.81 131.12 337.58 134.65 334.4 137.47 323.46 130.76 334.05 131.12 342.87 127.94 333.35 127.23 322.76 122.65 301.23 154.76 276.87 139.59 261.7 139.94 253.93 154.76 255.43 159.71 249.34 163.59 262.05 166.41 267.35 172.41 258.52 174.53 180.52 147 158.29 147.71 141.34 145.24 92.64 102.53 75.34 82.77 41.46 84.18"/><text class="cls-4" transform="translate(7.76 325.76)">TRANSJAMAICA</text><text class="cls-5" transform="translate(10.31 381.41)">HIGHWAY</text><path class="cls-6" d="M240.29,281.48h-104s-75-147.55,38-231l24,8.47S106.29,129.09,240.29,281.48Z"/><path class="cls-7" d="M259.29,281.48c-134-152.39-42-222.53-42-222.53l32,7.25s-118,108.28,213,215.28Z"/></g></g></svg>