<svg id="Layer_1" data-name="Layer 1" xmlns="http://www.w3.org/2000/svg" xmlns:xlink="http://www.w3.org/1999/xlink" viewBox="0 0 464.57 381.51"><defs><style>.cls-1{fill:url(#linear-gradient);}.cls-2{fill:#252122;}.cls-3{fill:#fff;}.cls-4{fill:#707070;}.cls-5{fill:url(#linear-gradient-2);}.cls-6{fill:url(#linear-gradient-3);}</style><linearGradient id="linear-gradient" x1="232.52" y1="281.87" x2="232.05" y2="-0.39" gradientUnits="userSpaceOnUse"><stop offset="0" stop-color="#fff"/><stop offset="0.52" stop-color="#6172b6"/><stop offset="1" stop-color="#1d4ca0"/></linearGradient><linearGradient id="linear-gradient-2" x1="141.89" y1="74.55" x2="199.4" y2="321.39" gradientUnits="userSpaceOnUse"><stop offset="0" stop-color="#fff"/><stop offset="0.5" stop-color="#6372b6"/><stop offset="0.86" stop-color="#1d4ca0"/></linearGradient><linearGradient id="linear-gradient-3" x1="305.34" y1="54.29" x2="331.71" y2="272.95" gradientUnits="userSpaceOnUse"><stop offset="0" stop-color="#fff"/><stop offset="0.7" stop-color="#6a78b9"/><stop offset="1" stop-color="#1d4ca0"/></linearGradient></defs><title>transjamaica-highway</title><rect class="cls-1" width="464.57" height="281.48"/><polygon class="cls-2" points="41.46 89.93 34.05 83.58 21.7 83.58 14.64 78.29 21.34 69.81 22.05 60.64 47.81 43.34 87.7 41.58 97.58 43.7 97.58 33.81 108.52 26.76 243.34 41.58 261.7 51.81 276.17 46.52 305.81 54.64 329.11 75.46 352.05 74.76 415.58 95.93 437.81 131.23 451.93 140.4 451.93 145.7 376.76 148.87 361.23 141.46 354.52 132.64 353.81 136.87 337.58 140.4 334.4 143.23 323.46 136.52 334.05 136.87 342.87 133.7 333.35 132.99 322.76 128.4 301.23 160.52 276.87 145.34 261.7 145.7 253.93 160.52 255.43 165.46 249.34 169.34 262.05 172.17 267.35 178.17 258.52 180.29 180.52 152.76 158.29 153.46 141.34 150.99 92.64 108.29 75.34 88.52 41.46 89.93"/><polygon class="cls-3" points="41.46 84.18 34.05 77.82 21.7 77.82 14.64 72.53 21.34 64.06 22.05 54.88 47.81 37.59 87.7 35.82 97.58 37.94 97.58 28.06 108.52 21 243.34 35.82 261.7 46.06 276.17 40.77 305.81 48.88 329.11 69.71 352.05 69 415.58 90.18 437.81 125.47 451.93 134.65 451.93 139.94 376.76 143.12 361.23 135.71 354.52 126.88 353.81 131.12 337.58 134.65 334.4 137.47 323.46 130.76 334.05 131.12 342.87 127.94 333.35 127.23 322.76 122.65 301.23 154.76 276.87 139.59 261.7 139.94 253.93 154.76 255.43 159.71 249.34 163.59 262.05 166.41 267.35 172.41 258.52 174.53 180.52 147 158.29 147.71 141.34 145.24 92.64 102.53 75.34 82.77 41.46 84.18"/><path class="cls-4" d="M41.28,296.28h-13v29.1h-8.1v-29.1H7.28v-5.95h34Z" transform="translate(0.29 0.48)"/><path class="cls-4" d="M83,325.28H73.14l-9.08-13.65H54.63v13.65h-8.3V290.33h25.6a9,9,0,0,1,7.2,3.37,11.92,11.92,0,0,1,2.85,8,8.59,8.59,0,0,1-2.45,6.18,10.92,10.92,0,0,1-6.2,3.19Zm-11.15-24a4.35,4.35,0,0,0-1.83-3.76,8.25,8.25,0,0,0-4.92-1.32H54.63V306H65.38a8.39,8.39,0,0,0,4.2-1A4,4,0,0,0,71.88,301.31Z" transform="translate(0.29 0.48)"/><path class="cls-4" d="M121.28,325.28h-8.75l-3-7.95H95.13L92,325.28H83.33l14.35-34.95h8.55Zm-14.4-14-4.75-12.3-4.6,12.3Z" transform="translate(0.29 0.48)"/><path class="cls-4" d="M161.13,325.28H150l-16.9-25.85v25.85h-8.35V290.33H136l16.6,26.2v-26.2h8.5Z" transform="translate(0.29 0.48)"/><path class="cls-4" d="M205.53,314.41a10.68,10.68,0,0,1-3.05,7.73,10.33,10.33,0,0,1-7.75,3.14H170V319h20.4a6.06,6.06,0,0,0,3.45-.95,3.51,3.51,0,0,0,1.6-3c0-3-2.1-4.48-6.3-4.48h-10.3a11.92,11.92,0,0,1-7.8-2.74,8.62,8.62,0,0,1-3.35-7,9.72,9.72,0,0,1,3.27-7.61,12.51,12.51,0,0,1,8.63-2.92h23.65v6H182.38a4.47,4.47,0,0,0-2.83,1.17,3.48,3.48,0,0,0-1.42,2.76,3.87,3.87,0,0,0,1.37,3,4.86,4.86,0,0,0,3.33,1.21h11.35q5.3,0,8.32,2.72A9.22,9.22,0,0,1,205.53,314.41Z" transform="translate(0.29 0.48)"/><path class="cls-4" d="M238.72,312.5a18.53,18.53,0,0,1-.22,3.22,11,11,0,0,1-1,2.77,10.33,10.33,0,0,1-6.09,5.49,25.74,25.74,0,0,1-9,1.3h-12.6v-5.7h11.2a14.51,14.51,0,0,0,3.94-.4,6.06,6.06,0,0,0,3.11-2.14,6.73,6.73,0,0,0,1.25-2.22,9,9,0,0,0,.35-2.62V290.33h9Z" transform="translate(0.29 0.48)"/><path class="cls-4" d="M280.32,325.28h-8.75l-2.95-7.95H254.17L251,325.28h-8.65l14.35-34.95h8.55Zm-14.4-14-4.75-12.3-4.6,12.3Z" transform="translate(0.29 0.48)"/><path class="cls-4" d="M327.77,325.28h-7.55v-26.7l-9.9,26.7h-9L291.12,298v27.3h-7.3V290.33h11.7L305.77,318l9.85-27.65h12.15Z" transform="translate(0.29 0.48)"/><path class="cls-4" d="M369.42,325.28h-8.75l-2.95-7.95H343.27l-3.15,7.95h-8.65l14.35-34.95h8.55Zm-14.4-14-4.75-12.3-4.6,12.3Z" transform="translate(0.29 0.48)"/><path class="cls-4" d="M382.27,325.28h-9.35V290.33h9.35Z" transform="translate(0.29 0.48)"/><path class="cls-4" d="M418.32,325.28H402.87a16.73,16.73,0,0,1-4.65-.65,11.87,11.87,0,0,1-7.05-6.19,21.34,21.34,0,0,1-2.35-10.23,22.71,22.71,0,0,1,2.1-10,12.62,12.62,0,0,1,6.55-6.54,17.68,17.68,0,0,1,6.75-1.35h14V297H403.67c-2.37,0-4.08,1.29-5.15,3.85a20.77,20.77,0,0,0-1.25,7.85,14,14,0,0,0,1.6,6.95,5.71,5.71,0,0,0,5.2,3.35h14.25Z" transform="translate(0.29 0.48)"/><path class="cls-4" d="M459,325.28h-8.75l-2.95-7.95H432.87l-3.15,7.95h-8.65l14.35-34.95H444Zm-14.4-14-4.75-12.3-4.6,12.3Z" transform="translate(0.29 0.48)"/><path class="cls-4" d="M45.58,380.93H36.93v-14.2h-16v14.2h-8.4V346h8.4v14.5h16V346h8.65Z" transform="translate(0.29 0.48)"/><path class="cls-4" d="M91,380.93H81.68V346H91Z" transform="translate(0.29 0.48)"/><path class="cls-4" d="M163.83,380.93h-23.3a12.69,12.69,0,0,1-10.5-5.39,19.28,19.28,0,0,1-3.9-12.08,18.12,18.12,0,0,1,4.3-12.18,14.21,14.21,0,0,1,11.3-5.3h21.7v6.45H143.78a7.24,7.24,0,0,0-6.25,3.4,12.81,12.81,0,0,0-2.15,7.53,14.82,14.82,0,0,0,2,7.88,7,7,0,0,0,6.2,3.74h11.75v-8.85h-12v-5.8h20.5Z" transform="translate(0.29 0.48)"/><path class="cls-4" d="M233.58,380.93h-8.65v-14.2h-16v14.2h-8.4V346h8.4v14.5h16V346h8.65Z" transform="translate(0.29 0.48)"/><path class="cls-4" d="M325.63,346l-12.15,34.95H302.83l-7.75-24.7-7.5,24.7h-10.3l-12-34.95h9.55l7.8,26.1,7.7-26.1h10l8.25,26.4L316,346Z" transform="translate(0.29 0.48)"/><path class="cls-4" d="M391.27,380.93h-8.75L379.58,373H365.13L362,380.93h-8.64L367.67,346h8.55Zm-14.39-14.05-4.75-12.3-4.61,12.3Z" transform="translate(0.29 0.48)"/><path class="cls-4" d="M457.57,346l-15.4,20.23V381h-8.25V366.21L418.72,346h10.15l9.1,13.9,9.25-13.9Z" transform="translate(0.29 0.48)"/><path class="cls-5" d="M240,281H136S61,133.45,174,50l24,8.47S106,128.61,240,281Z" transform="translate(0.29 0.48)"/><path class="cls-6" d="M259,281C125,128.61,217,58.47,217,58.47l32,7.25S131,174,462,281Z" transform="translate(0.29 0.48)"/></svg>